<svg xmlns="http://www.w3.org/2000/svg" xmlns:xlink="http://www.w3.org/1999/xlink" width="300" zoomAndPan="magnify" viewBox="0 0 224.87999 149.999998" height="200" preserveAspectRatio="xMidYMid meet" version="1.0"><defs><clipPath id="25c5622943"><path d="M 60 52 L 115 52 L 115 105.242188 L 60 105.242188 Z M 60 52 " clip-rule="nonzero"/></clipPath><clipPath id="80d7ee60b1"><path d="M 114.28125 69.136719 L 114.277344 69.089844 C 113.378906 64.632812 111.355469 61.390625 108.761719 59.027344 C 96.371094 45.917969 74.355469 53.523438 65.78125 66.921875 C 64.488281 68.945312 63.417969 71.113281 62.605469 73.375 C 60.125 80.25 59.890625 88.078125 61.949219 95.121094 C 62.796875 98.027344 64.167969 100.992188 66.421875 102.871094 C 68.925781 104.953125 71.746094 104.378906 74.160156 102.339844 C 75.679688 101.054688 76.78125 99.363281 77.65625 97.632812 C 78.824219 95.324219 79.632812 92.878906 80.058594 90.417969 C 80.171875 89.769531 80.847656 89.402344 81.457031 89.640625 C 82.746094 90.144531 84.382812 90.410156 86.1875 90.339844 C 86.929688 90.3125 87.652344 90.226562 88.34375 90.097656 C 89.152344 89.945312 89.835938 90.699219 89.5625 91.476562 C 88.457031 94.632812 87.5 98.027344 87.675781 99.929688 C 87.863281 101.914062 88.585938 103.375 89.820312 104.265625 C 90.636719 104.851562 91.65625 105.160156 92.773438 105.160156 C 93.421875 105.160156 94.085938 105.058594 94.753906 104.855469 C 96.226562 104.410156 97.488281 103.550781 98.421875 102.855469 C 109.011719 94.972656 115.535156 81.105469 114.28125 69.136719 Z M 88.621094 74.46875 C 85.136719 74.214844 82.082031 73.230469 82.179688 71.898438 C 82.277344 70.566406 85.488281 69.386719 88.972656 69.640625 C 92.457031 69.898438 95.648438 71.371094 95.550781 72.703125 C 95.453125 74.035156 92.105469 74.722656 88.621094 74.46875 Z M 88.621094 74.46875 " clip-rule="nonzero"/></clipPath><clipPath id="c836f39f7b"><path d="M 112.441406 53.582031 L 171 53.582031 L 171 105.222656 L 112.441406 105.222656 Z M 112.441406 53.582031 " clip-rule="nonzero"/></clipPath><clipPath id="321dcca3a9"><path d="M 112.441406 98.84375 L 117.523438 88.199219 C 122.808594 91.121094 130.394531 93.484375 136.929688 93.484375 C 147.574219 93.484375 154.523438 88.894531 154.523438 81.863281 L 154.523438 79.222656 L 154.464844 79.222656 C 152.242188 85.417969 145.289062 89.453125 136.730469 89.453125 C 124.914062 89.453125 117.265625 81.863281 117.265625 71.378906 L 117.304688 53.582031 L 133.789062 53.582031 L 133.789062 69.648438 C 133.789062 75.765625 137.625 79.800781 143.382812 79.800781 C 150.054688 79.800781 154.503906 75.410156 154.503906 68.597656 L 154.503906 53.582031 L 170.910156 53.582031 L 170.910156 82.640625 C 170.910156 96.261719 157.902344 105.160156 138.019531 105.160156 C 128.289062 105.160156 118.082031 102.320312 112.441406 98.84375 Z M 112.441406 98.84375 " clip-rule="nonzero"/></clipPath><clipPath id="46cbd4ab01"><path d="M 0 52.226562 L 60.691406 52.226562 L 60.691406 102.222656 L 0 102.222656 Z M 0 52.226562 " clip-rule="nonzero"/></clipPath><clipPath id="e9680b6032"><path d="M 60.558594 73.480469 L 40.34375 77.410156 C 39.972656 70.191406 36.789062 65.621094 32.191406 65.621094 C 25.933594 65.621094 22.191406 71.421875 22.191406 80.59375 L 22.191406 102.117188 L 0 102.117188 L 0 53.828125 L 18.449219 53.828125 L 21.441406 64.980469 L 21.523438 64.980469 C 25.078125 57.089844 32.941406 52.226562 41.65625 52.226562 C 52.402344 52.226562 59.808594 60.566406 60.558594 73.480469 Z M 60.558594 73.480469 " clip-rule="nonzero"/></clipPath><clipPath id="f15529a93e"><path d="M 173.222656 53 L 224.761719 53 L 224.761719 103.796875 L 173.222656 103.796875 Z M 173.222656 53 " clip-rule="nonzero"/></clipPath><clipPath id="88a1cd68f3"><path d="M 224.734375 69.65625 L 224.730469 69.613281 C 223.878906 65.398438 221.964844 62.328125 219.515625 60.097656 C 207.796875 47.699219 186.980469 54.894531 178.871094 67.5625 C 177.648438 69.476562 176.636719 71.527344 175.867188 73.664062 C 173.523438 80.167969 173.300781 87.570312 175.246094 94.230469 C 176.050781 96.976562 177.347656 99.78125 179.480469 101.554688 C 181.84375 103.523438 184.511719 102.980469 186.792969 101.050781 C 188.230469 99.835938 189.273438 98.238281 190.101562 96.601562 C 191.203125 94.417969 191.96875 92.109375 192.375 89.78125 C 192.480469 89.167969 193.117188 88.820312 193.695312 89.042969 C 194.914062 89.519531 196.460938 89.769531 198.167969 89.707031 C 198.871094 89.679688 199.554688 89.601562 200.207031 89.476562 C 200.96875 89.332031 201.617188 90.046875 201.359375 90.78125 C 200.316406 93.765625 199.40625 96.976562 199.578125 98.773438 C 199.753906 100.652344 200.4375 102.03125 201.605469 102.875 C 202.375 103.429688 203.339844 103.722656 204.398438 103.722656 C 205.007812 103.722656 205.636719 103.625 206.269531 103.433594 C 207.660156 103.011719 208.851562 102.199219 209.738281 101.542969 C 219.75 94.085938 225.917969 80.976562 224.734375 69.65625 Z M 200.46875 74.699219 C 197.175781 74.457031 194.285156 73.527344 194.375 72.269531 C 194.46875 71.007812 197.507812 69.894531 200.804688 70.132812 C 204.097656 70.375 207.113281 71.769531 207.023438 73.027344 C 206.929688 74.289062 203.765625 74.9375 200.46875 74.699219 Z M 200.46875 74.699219 " clip-rule="nonzero"/></clipPath></defs><g clip-path="url(#25c5622943)"><g clip-path="url(#80d7ee60b1)"><path fill="#ff66c4" d="M 60.558594 52.226562 L 114.433594 52.226562 L 114.433594 105.132812 L 60.558594 105.132812 Z M 60.558594 52.226562 " fill-opacity="1" fill-rule="nonzero"/></g></g><g clip-path="url(#c836f39f7b)"><g clip-path="url(#321dcca3a9)"><path fill="#ff66c4" d="M 112.441406 53.582031 L 170.832031 53.582031 L 170.832031 105.222656 L 112.441406 105.222656 Z M 112.441406 53.582031 " fill-opacity="1" fill-rule="nonzero"/></g></g><g clip-path="url(#46cbd4ab01)"><g clip-path="url(#e9680b6032)"><path fill="#ff66c4" d="M 0 52.226562 L 60.691406 52.226562 L 60.691406 102.222656 L 0 102.222656 Z M 0 52.226562 " fill-opacity="1" fill-rule="nonzero"/></g></g><g clip-path="url(#f15529a93e)"><g clip-path="url(#88a1cd68f3)"><path fill="#ff66c4" d="M 173.933594 53.664062 L 224.878906 53.664062 L 224.878906 103.695312 L 173.933594 103.695312 Z M 173.933594 53.664062 " fill-opacity="1" fill-rule="nonzero"/></g></g></svg>